<?xml version="1.0" encoding="UTF-8" standalone="no"?><!DOCTYPE svg PUBLIC "-//W3C//DTD SVG 1.1//EN" "http://www.w3.org/Graphics/SVG/1.1/DTD/svg11.dtd"><svg width="100%" height="100%" viewBox="0 0 1982 1026" version="1.1" xmlns="http://www.w3.org/2000/svg" xmlns:xlink="http://www.w3.org/1999/xlink" xml:space="preserve" xmlns:serif="http://www.serif.com/" style="fill-rule:evenodd;clip-rule:evenodd;stroke-linejoin:round;stroke-miterlimit:1.41421;"><path d="M1012.59,127.46c0,-16.689 0,-32.622 -0.003,-48.557c-0.003,-22.856 -4.659,-28.638 -29.884,-34.663c7.093,14.466 -10.597,34.079 14.41,43.516c0,12.825 0,26.119 0,39.704c5.493,0 9.837,0 15.477,0Zm-3.621,481.849c-13.903,0 -26.331,-0.766 -38.563,0.453c-3.788,0.379 -9.878,5.994 -10.059,9.469c-0.991,19.022 -0.472,38.119 -0.472,58.219c15.919,0 32.135,0 49.094,0c0,-22.535 0,-44.122 0,-68.141Zm-131.369,-325.45c0.387,0.884 0.778,1.769 1.163,2.656c81.49,0 162.978,0 247.683,0c-38.693,-32.69 -74.912,-63.293 -111.809,-94.469c-45.949,30.785 -91.493,61.297 -137.037,91.813Zm-528.063,141.538c-17.69,-25.666 -34.693,-49.057 -50.194,-73.403c-6.949,-10.916 -15.609,-15.61 -27.828,-16.797c-19.653,-1.913 -39.228,-4.597 -58.843,-6.913c-27.61,-3.259 -55.222,-6.475 -86.153,-10.1c4.971,6.847 7.806,10.984 10.875,14.944c18.787,24.228 39.369,47.284 55.953,72.931c16.368,25.325 34.681,39.878 65.772,29.063c2.375,-0.825 5.169,-0.388 7.753,-0.669c26.687,-2.907 53.375,-5.841 82.665,-9.056Zm1260.23,-26.557c39.41,6.591 76.372,12.129 113.038,19.216c14.759,2.853 24.781,0.497 32.074,-13.435c4.035,-7.709 10.613,-14.068 15.92,-21.134c14.749,-19.628 29.431,-39.309 45.046,-60.184c-60.531,-6.784 -118.325,-13.41 -176.181,-19.4c-3.562,-0.369 -10.356,3.616 -11.065,6.647c-6.725,28.713 -12.454,57.663 -18.832,88.29Zm-784.425,11.051c98.438,-2.048 195.229,-4.057 292.16,-6.069c0,-24.854 0,-47.357 0,-71.338c-98.013,0 -194.853,0 -292.16,0c0,25.594 0,49.928 0,77.407Zm786.48,12.727c-1.184,4.829 -1.862,6.307 -1.862,7.788c-0.107,56.738 -0.416,113.478 0.274,170.206c0.066,4.947 5.76,12.019 10.629,14.341c22.5,10.738 45.6,20.222 68.55,29.994c13.956,5.947 28.041,11.596 43.706,18.056c0,-11.509 -0.247,-20.25 0.04,-28.972c1.953,-59.25 3.882,-118.503 6.204,-177.738c0.356,-9.093 -2.585,-13.068 -11.731,-14.256c-15.963,-2.075 -31.788,-5.202 -47.669,-7.89c-22.434,-3.797 -44.869,-7.591 -68.141,-11.529Zm-1505.44,-84.353c-2.775,3.075 -4.653,4.707 -5.991,6.704c-24.234,36.249 -48.566,72.441 -72.384,108.962c-2.872,4.403 -4.047,10.657 -4.069,16.063c-0.278,60.324 0.065,120.656 -0.391,180.978c-0.085,10.869 3.572,14.384 14.147,14.756c44.653,1.578 89.281,3.869 133.925,5.759c3.906,0.166 7.859,-0.671 12.375,-1.102c2.041,-56.704 2.737,-112.266 6.559,-167.619c1.998,-28.935 -3.291,-53.051 -21.675,-76.141c-22.162,-27.834 -41.297,-58.079 -62.496,-88.36Zm1757.21,29.704c-21.969,28.843 -43.322,56.243 -63.784,84.287c-4.206,5.765 -7.157,13.95 -7.173,21.025c-0.102,39.484 1.06,78.972 1.432,118.459c0.287,30.988 0.056,61.985 0.056,93.129c56.406,0 108.525,0 159.903,0c1.144,-2.807 1.85,-3.732 1.854,-4.656c0.15,-74.341 0.306,-148.682 0.156,-223.023c-0.006,-3.705 -1.704,-8.55 -4.35,-10.94c-28.835,-26.022 -58.019,-51.663 -88.094,-78.281Zm-745.647,56.134c-98.684,4.488 -195.469,8.891 -292.034,13.281c0,82.929 0,163.316 0,243.981c6.606,0 12.131,0 18.678,0c1.012,-9.399 1.943,-18.006 2.853,-26.415c21.353,-3.125 28.85,2.928 33.937,26.594c16.476,0 32.894,0 51.541,0c0,-30.769 0,-60.525 0,-90.173c37.916,0 73.562,0 111.403,0c0,29.438 0,57.732 0,85.876c25.853,0 49.488,0 73.622,0c0,-84.256 0,-167.278 0,-253.144Zm35.741,-0.431c0,61.753 0,120.275 0,180.374c141.996,0 282.825,0 424.506,0c0,-60.6 0,-120.671 0,-180.374c-141.747,0 -282.522,0 -424.506,0Zm-160.063,-423.672c1.957,3.537 3.119,7.994 5.991,10.472c22.918,19.756 28.519,45.578 27.231,74.172c-0.35,7.768 1.563,15.75 0.484,23.359c-4.878,34.415 8.172,59.963 33.466,83.337c28.962,26.76 54.022,57.698 81.681,85.938c5.369,5.484 14.954,9.953 22.463,9.762c127.425,-3.24 254.828,-7.293 382.234,-11.146c4.079,-0.126 8.169,-0.016 12.431,-0.016c3.582,14.697 -2.225,19.291 -15.321,20.26c-125.566,9.309 -251.091,19.134 -376.657,28.406c-10.278,0.759 -14.762,3.312 -14.303,14.543c0.853,20.66 0.247,41.378 0.247,64.088c142.069,-1.869 282.3,-3.713 422.103,-5.55c10.594,-41.05 20.894,-80.979 31.494,-122.05c35.591,6.525 67.669,12.425 99.759,18.287c45.522,8.313 91.122,16.25 136.513,25.226c8.109,1.602 16.522,6.143 22.84,11.587c35.869,30.881 71.116,62.487 106.694,93.703c2.122,1.862 5.329,2.491 8.029,3.694c0,92.697 0,185.394 0,278.088c-63.001,0.162 -126.01,0.896 -188.997,-0.054c-11.204,-0.172 -22.598,-6.703 -33.401,-11.441c-44.272,-19.393 -88.275,-39.406 -132.584,-58.715c-6.922,-3.013 -14.912,-5.009 -22.418,-5.025c-145.804,-0.29 -291.604,-0.219 -437.407,-0.185c-4.043,0.003 -8.084,0.456 -12.797,0.738c0,15.806 0,30.593 0,46.172c8.366,0.597 15.919,1.131 24.272,1.728c0,10.481 0,20.1 0,31.247c-99.597,0 -198.368,0 -298.966,0c-0.45,6.853 -0.684,12.338 -1.184,17.794c-6.987,76.118 -13.875,152.24 -21.219,228.319c-0.787,8.127 -3.712,16.218 -6.656,23.94c-8.544,22.403 -28.9,26.175 -41.603,5.428c-15.313,-25.01 -27.256,-52.288 -38.65,-79.428c-13.563,-32.303 -24.991,-65.503 -37.341,-98.313c-1.931,0.253 -3.862,0.507 -5.793,0.757c-2.663,13.275 -4.722,26.693 -8.094,39.784c-12.291,47.76 -24.213,95.647 -38.235,142.906c-2.949,9.938 -13.227,23.238 -21.875,24.707c-14.4,2.443 -24.834,-11.591 -28.303,-24.625c-7.706,-28.995 -14.034,-58.507 -18.484,-88.17c-6.941,-46.262 -11.453,-92.88 -17.866,-139.227c-2.056,-14.835 7.226,-17.482 17.435,-20.204c11.759,-3.131 17.081,4.738 18.327,13.897c4.401,32.322 7.22,64.863 11.563,97.197c3.097,23.062 7.553,45.947 11.747,68.85c0.678,3.685 3.185,7.031 4.841,10.537c1.534,0.057 3.065,0.116 4.597,0.173c6.381,-27.998 13.815,-55.804 18.878,-84.035c6.134,-34.247 9.362,-69.018 15.859,-103.184c1.791,-9.428 10.731,-17.5 16.394,-26.191c9.159,6.057 21.9,10.041 26.815,18.55c15.25,26.387 29.035,53.882 40.545,82.106c11.928,29.256 20.443,59.904 30.684,89.863c1.674,4.9 4.553,9.394 6.878,14.075c2.109,-0.241 4.219,-0.481 6.328,-0.722c5.9,-70.318 11.797,-140.641 17.906,-213.478c-47.569,0 -94.043,0 -141.668,0c0,-10.941 0,-19.503 0,-30.125c21.405,0 42.959,0 65.334,0c0,-81.412 0,-160.781 0,-243.003c-181.45,5.621 -362.066,11.219 -543.322,16.838c0,72.212 0,140.749 0,211.618c11.753,-3.247 22.575,-5.881 33.172,-9.232c31.719,-10.024 63.144,-21.049 95.106,-30.209c14.184,-4.062 18.069,-11.484 18.231,-25.477c0.447,-38.951 2.447,-77.885 3.825,-116.547c19.594,-6.163 23.682,-4.054 23.219,15.306c-0.734,30.65 -3.016,61.265 -4.682,91.89c-0.309,5.666 -0.79,11.319 -1.343,19.091c113.51,3.897 226.025,7.762 339.159,11.65c0,6.415 0,11.428 0,17.406c-13.252,0 -26.062,0.066 -38.872,-0.012c-96.834,-0.594 -193.703,-2.763 -290.484,-0.801c-26.037,0.528 -51.997,13.026 -77.678,21.026c-34.219,10.662 -68.081,22.465 -102.232,33.349c-5.268,1.682 -11.259,1.476 -16.918,1.5c-67.685,0.266 -135.365,0.413 -203.047,0.588c0,-85.406 0,-170.809 0,-256.218c26.853,-36.254 53.706,-72.504 80.559,-108.757c3.094,-4.175 7.26,-7.934 9.085,-12.603c9.394,-24.044 27.868,-24.284 49.325,-21.228c52.525,7.487 105.038,16.768 157.871,19.872c57.573,3.378 115.504,0.928 173.273,0.444c82.75,-0.691 165.499,-1.741 248.24,-3.091c10.31,-0.169 13.866,3.944 13.81,14.928c-136.491,3.503 -272.906,7.007 -412.688,10.597c17.628,28.54 33.159,54.625 49.978,79.85c2.422,3.634 11.11,4.512 16.816,4.316c68.631,-2.373 137.24,-5.344 205.866,-7.841c51.484,-1.872 102.984,-3.241 154.471,-4.947c6.147,-0.206 12.273,-1.128 20.154,-1.888c0,-31.462 0.343,-62.062 -0.198,-92.646c-0.174,-9.838 2.516,-15.628 11.316,-21.369c59.631,-38.913 118.844,-78.475 177.703,-118.544c5.241,-3.568 9.71,-12.15 9.932,-18.559c1.031,-30.166 1.331,-60.419 0.118,-90.569c-0.681,-16.969 3.219,-31.459 12.569,-45.291c4.881,-7.222 8.25,-15.462 12.3,-23.243c1.044,0 2.085,0 3.125,0Z" style="fill:#fff;"/><path d="M1244.93,654.875c22.966,-3.334 33.926,5.325 32.432,26.94c-5.791,83.513 -11.7,167.022 -18.641,250.444c-1.403,16.847 -6.159,33.766 -11.724,49.838c-6.991,20.184 -25.963,23.815 -39.057,6.497c-12.028,-15.913 -21.609,-34.203 -29.418,-52.653c-15.742,-37.185 -29.472,-75.219 -44.242,-112.823c-1.827,-4.656 -4.922,-8.818 -9.184,-16.281c-6.856,32.735 -11.863,62.379 -19.45,91.344c-8.791,33.55 -19.172,66.741 -30.428,99.547c-2.668,7.781 -12.522,19.519 -17.394,18.753c-9.3,-1.463 -21.418,-8.756 -25.178,-16.934c-8.771,-19.069 -15.856,-39.704 -19.025,-60.41c-8.409,-54.956 -14.437,-110.281 -21.259,-165.475c-0.891,-7.184 -0.887,-14.475 -1.281,-21.396c26.693,-14.129 34.903,-11.641 39.562,17.468c4.819,30.137 4.329,61.09 7.953,91.475c2.953,24.769 8.541,49.219 12.963,73.816c2.631,-0.026 5.259,-0.05 7.884,-0.078c6.218,-25.65 13.7,-51.079 18.341,-77.013c6.484,-36.294 10.325,-73.05 16.441,-109.418c1.803,-10.729 3.924,-26.523 17.531,-25.929c9.316,0.406 22.112,9.491 26.537,18.172c18.55,36.403 35.285,73.8 51.147,111.472c8.228,19.54 13.056,40.494 19.875,60.656c1.606,4.741 5.06,8.856 7.663,13.259c1.849,-0.327 3.703,-0.656 5.556,-0.987c7.434,-89.709 14.869,-179.415 22.396,-270.285Z" style="fill:#fff;"/><path d="M946.412,916.844c-0.143,26.577 -0.418,52.631 17.151,75.771c6.109,8.044 6.037,20.403 -4.119,28.069c-10.547,7.953 -19.965,2.619 -27.728,-5.031c-18.862,-18.591 -23.344,-43.603 -27.522,-68.025c-3.138,-18.329 -3.666,-37.191 -4.128,-55.844c-0.169,-6.887 0.975,-16.444 5.409,-20.219c7.119,-6.065 17.603,-11.409 26.407,-11.025c5.106,0.219 12.475,11.684 13.903,19.044c2.325,12.009 0.627,24.8 0.627,37.26Z" style="fill:#fff;"/><path d="M1344.85,908.879c-0.779,33.771 -0.394,60.237 16.603,84.209c3.934,5.544 1.603,20.016 -3.2,26.266c-7.791,10.128 -20.694,5.802 -26.959,-2.797c-9.576,-13.141 -19.432,-27.75 -23.044,-43.175c-6.113,-26.088 -8.522,-53.219 -10.419,-80.06c-1.385,-19.487 8.362,-31.621 22.912,-33.9c12.463,-1.946 20.722,3.131 22.21,15.65c1.59,13.369 1.55,26.928 1.897,33.807Z" style="fill:#fff;"/><path d="M1297.31,800.496c-0.215,-14.25 7.032,-23.194 19.297,-23.794c9.079,-0.444 20.954,11.6 20.813,21.11c-0.138,9.127 -12.519,22.881 -21.172,21.472c-9.953,-1.613 -18.806,-6.394 -18.938,-18.788Z" style="fill:#fff;"/><path d="M899.65,798.794c0.028,-14.203 7.643,-23.781 19.44,-21.156c7.994,1.781 16.579,12.187 19.841,20.678c3.119,8.127 -13.775,23.403 -21.985,21.043c-10.08,-2.893 -19.506,-8.081 -17.296,-20.566Z" style="fill:#fff;"/></svg>